<svg width="110" height="110" viewBox="0 0 110 110" fill="none" xmlns="http://www.w3.org/2000/svg">
<path d="M76.9134 77.5063V69.2138L75.4711 71.5574V79.3992C75.3769 80.5122 75.2321 81.4985 75.019 82.3737H76.9134V77.5063Z" fill="white"/>
<path d="M34.1888 69.2138V77.5063V82.3737H36.0832C35.8702 81.4985 35.7253 80.5122 35.6311 79.3992V71.5574L34.1888 69.2138Z" fill="white"/>
<path d="M33.8283 99.3193C42.4581 101.52 46.4474 102.204 55.5511 102.204C64.6548 102.204 68.6441 101.52 77.2739 99.3193L77.6344 98.2376C70.063 100.04 65.9608 100.564 55.5511 100.761C45.1414 100.564 41.0392 100.04 33.4678 98.2376L33.8283 99.3193Z" fill="white"/>
<path d="M46.4474 89.1339V90.6662H55.5511H64.6548V89.1339H55.5511H46.4474Z" fill="white"/>
<path d="M27.3385 67.1407V87.7819C27.3385 91.3873 34.1888 91.3873 34.1888 87.241V82.3737V77.5063V69.2138V63.5353C34.1888 58.8482 27.3385 60.5608 27.3385 67.1407Z" fill="white"/>
<path d="M46.4474 89.1339H55.5511H64.6548C71.2227 88.3283 73.9613 86.7193 75.019 82.3737C75.2321 81.4985 75.3769 80.5122 75.4711 79.3992V71.5574V65.4281V58.8482C75.4711 54.2512 72.2263 51.9978 65.7365 51.2768C61.9348 50.8544 55.5511 50.9162 55.5511 50.9162C55.5511 50.9162 49.1674 50.8544 45.3658 51.2768C44.1748 51.4091 43.0932 51.593 42.1208 51.8335C37.7943 52.9038 35.6311 55.0948 35.6311 58.8482V65.4281V71.5574V79.3992C35.7253 80.5122 35.8702 81.4985 36.0832 82.3737C37.1409 86.7193 39.8795 88.3283 46.4474 89.1339Z" fill="white"/>
<path d="M83.7637 87.7819V67.1407C83.7637 60.5608 76.9134 58.8482 76.9134 63.5353V69.2138V77.5063V82.3737V87.241C76.9134 91.3873 83.7637 91.3873 83.7637 87.7819Z" fill="white"/>
<path d="M46.4474 90.6662C46.4474 90.6662 37.2592 91.1964 34.1888 94.1815C32.649 95.6785 32.7467 98.0906 33.4678 98.2376C41.0392 100.04 45.1414 100.564 55.5511 100.761C65.9608 100.564 70.063 100.04 77.6344 98.2376C78.3555 98.0906 78.4532 95.6785 76.9134 94.1815C73.843 91.1964 64.6548 90.6662 64.6548 90.6662H55.5511H46.4474Z" fill="white"/>
<path d="M35.6311 58.8482C35.6311 63.4451 35.6311 61.6825 35.6311 65.4281M35.6311 58.8482C35.6311 55.0948 37.7943 52.9038 42.1208 51.8335C43.0932 51.593 44.1748 51.4091 45.3658 51.2768C49.1674 50.8544 55.5511 50.9162 55.5511 50.9162C55.5511 50.9162 61.9348 50.8544 65.7365 51.2768C72.2263 51.9978 75.4711 54.2512 75.4711 58.8482M35.6311 58.8482V65.4281M46.4474 89.1339V90.6662M46.4474 89.1339H55.5511H64.6548M46.4474 89.1339C39.8795 88.3283 37.1409 86.7193 36.0832 82.3737M46.4474 90.6662C46.4474 90.6662 37.2592 91.1964 34.1888 94.1815C32.649 95.6785 32.7467 98.0906 33.4678 98.2376M46.4474 90.6662H55.5511H64.6548M35.6311 79.3992C35.6311 77.5885 35.6311 73.8971 35.6311 71.5574M35.6311 79.3992C35.7253 80.5122 35.8702 81.4985 36.0832 82.3737M35.6311 79.3992V71.5574M33.4678 98.2376L33.8283 99.3193C42.4581 101.52 46.4474 102.204 55.5511 102.204C64.6548 102.204 68.6441 101.52 77.2739 99.3193L77.6344 98.2376M33.4678 98.2376C41.0392 100.04 45.1414 100.564 55.5511 100.761C65.9608 100.564 70.063 100.04 77.6344 98.2376M35.6311 65.4281C35.6311 67.754 35.6311 68.9891 35.6311 71.5574M35.6311 65.4281V71.5574M27.3385 67.1407C27.3385 67.1407 27.3385 84.1764 27.3385 87.7819M27.3385 67.1407C27.3385 60.5608 34.1888 58.8482 34.1888 63.5353V69.2138M27.3385 67.1407V87.7819M27.3385 87.7819C27.3385 91.3873 34.1888 91.3873 34.1888 87.241M34.1888 87.241C34.1888 83.0948 34.1888 82.3737 34.1888 82.3737M34.1888 87.241V82.3737M34.1888 69.2138V77.5063V82.3737M34.1888 69.2138L35.6311 71.5574M34.1888 82.3737H36.0832M75.4711 58.8482C75.4711 63.4451 75.4711 61.6825 75.4711 65.4281M75.4711 58.8482V65.4281M64.6548 89.1339V90.6662M64.6548 89.1339C71.2227 88.3283 73.9613 86.7193 75.019 82.3737M64.6548 90.6662C64.6548 90.6662 73.843 91.1964 76.9134 94.1815C78.4532 95.6785 78.3555 98.0906 77.6344 98.2376M75.4711 79.3992C75.4711 77.5885 75.4711 73.8971 75.4711 71.5574M75.4711 79.3992C75.3769 80.5122 75.2321 81.4985 75.019 82.3737M75.4711 79.3992V71.5574M75.4711 65.4281C75.4711 67.754 75.4711 68.9891 75.4711 71.5574M75.4711 65.4281V71.5574M83.7637 67.1407C83.7637 67.1407 83.7637 84.1764 83.7637 87.7819M83.7637 67.1407C83.7637 60.5608 76.9134 58.8482 76.9134 63.5353V69.2138M83.7637 67.1407V87.7819M83.7637 87.7819C83.7637 91.3873 76.9134 91.3873 76.9134 87.241M76.9134 87.241C76.9134 83.0948 76.9134 82.3737 76.9134 82.3737M76.9134 87.241V82.3737M76.9134 69.2138V77.5063V82.3737M76.9134 69.2138L75.4711 71.5574M76.9134 82.3737H75.019" stroke="black" stroke-linejoin="round"/>
<path d="M1 13V54C1 56.7614 3.23858 59 6 59H104C106.761 59 109 56.7614 109 54V13C109 10.2386 106.761 8 104 8H6C3.23858 8 1 10.2386 1 13Z" fill="white" stroke="black"/>
<path d="M23.6788 6.70914C23.5181 6.48453 23.2058 6.43267 22.9812 6.5933C22.7566 6.75394 22.7048 7.06624 22.8654 7.29086L23.6788 6.70914ZM21.1088 12.4082L20.7679 12.0424C20.6176 12.1824 20.5683 12.4002 20.6436 12.5913C20.7188 12.7825 20.9034 12.9082 21.1088 12.9082V12.4082ZM22.2193 6.68637C22.0461 6.47131 21.7314 6.43738 21.5163 6.61059C21.3012 6.7838 21.2673 7.09856 21.4405 7.31363L22.2193 6.68637ZM24.7143 12.4082V12.9082C24.8888 12.9082 25.0508 12.8171 25.1415 12.668C25.2322 12.5188 25.2385 12.3332 25.1582 12.1782L24.7143 12.4082ZM20.3739 6.63977C20.175 6.44827 19.8585 6.4543 19.667 6.65325C19.4755 6.8522 19.4815 7.16872 19.6804 7.36023L20.3739 6.63977ZM61.7389 25.1924C61.8301 25.453 62.1154 25.5904 62.376 25.4991C62.6367 25.4079 62.774 25.1227 62.6828 24.862L61.7389 25.1924ZM65.5878 7.27487C65.5405 7.00281 65.2816 6.82062 65.0095 6.86794C64.7375 6.91525 64.5553 7.17416 64.6026 7.44621L65.5878 7.27487ZM53.2199 24.6586C53.0164 24.8452 53.0026 25.1615 53.1892 25.3651C53.3758 25.5686 53.6921 25.5824 53.8957 25.3958L53.2199 24.6586ZM53.5578 15.6531L53.998 15.416L53.998 15.416L53.5578 15.6531ZM26.8775 9.16327L26.7339 8.68435L26.8775 9.16327ZM23.8942 12.9657C24.0029 13.2195 24.2969 13.3371 24.5507 13.2283C24.8045 13.1195 24.9221 12.8256 24.8133 12.5717L23.8942 12.9657ZM88.177 43.0614C87.9818 43.2567 87.9818 43.5733 88.177 43.7685C88.3723 43.9638 88.6889 43.9638 88.8841 43.7685L88.177 43.0614ZM90.3333 36.2041L90.6333 35.8041L90.6333 35.8041L90.3333 36.2041ZM23.2721 12.7687L22.8249 12.9923C22.889 13.1206 23.0051 13.2151 23.1438 13.252C23.2824 13.2888 23.4301 13.2643 23.5494 13.1847L23.2721 12.7687ZM76.2963 40.1606C76.092 40.3464 76.0769 40.6626 76.2627 40.867C76.4484 41.0713 76.7646 41.0863 76.969 40.9006L76.2963 40.1606ZM79.1564 34.0408L78.6661 34.1389L78.6661 34.1389L79.1564 34.0408ZM42.0204 14.5714L42.1785 14.0971L42.0204 14.5714ZM23.7126 12.6448C23.9795 12.1478 24.2022 11.6899 24.3714 11.2575L23.4402 10.8931C23.2911 11.2741 23.0886 11.6932 22.8316 12.1716L23.7126 12.6448ZM24.3714 11.2575C24.6846 10.4569 24.8219 9.72383 24.708 8.96705C24.5949 8.21615 24.2426 7.49754 23.6788 6.70914L22.8654 7.29086C23.3808 8.01159 23.6386 8.58121 23.7191 9.11596C23.7988 9.64484 23.7133 10.1949 23.4402 10.8931L24.3714 11.2575ZM21.1088 12.9082H23.2721V11.9082H21.1088V12.9082ZM21.4497 12.774C21.9085 12.3465 22.3671 11.9391 22.7262 11.5407C23.0899 11.1371 23.3986 10.6939 23.53 10.1643L22.5595 9.92345C22.4852 10.2228 22.2995 10.5205 21.9834 10.8712C21.6627 11.227 21.2562 11.5873 20.7679 12.0424L21.4497 12.774ZM23.53 10.1643C23.7791 9.16064 23.3438 8.08255 22.2193 6.68637L21.4405 7.31363C22.5272 8.66293 22.6882 9.40451 22.5595 9.92345L23.53 10.1643ZM23.2721 12.9082H24.7143V11.9082H23.2721V12.9082ZM25.1582 12.1782C24.9221 11.7225 24.7082 11.3155 24.3068 10.7766L23.5048 11.374C23.856 11.8454 24.0399 12.1934 24.2703 12.6382L25.1582 12.1782ZM24.3068 10.7766C24.0793 10.4713 23.7948 10.1275 23.4155 9.70838L22.674 10.3793C23.0382 10.7818 23.3012 11.1006 23.5048 11.374L24.3068 10.7766ZM23.4155 9.70838C22.7603 8.98434 21.8134 8.02539 20.3739 6.63977L19.6804 7.36023C21.115 8.74115 22.0422 9.68119 22.674 10.3793L23.4155 9.70838ZM62.6828 24.862C61.5409 21.5994 62.5342 19.422 63.7344 16.9186C64.942 14.3997 66.3382 11.5898 65.5878 7.27487L64.6026 7.44621C65.2944 11.4238 64.0347 13.979 62.8326 16.4863C61.6232 19.0089 60.4532 21.5186 61.7389 25.1924L62.6828 24.862ZM53.8957 25.3958C54.7617 24.6019 55.281 23.0325 55.3553 21.2716C55.4309 19.4802 55.0538 17.3767 53.998 15.416L53.1176 15.8901C54.0808 17.679 54.4249 19.6017 54.3562 21.2294C54.2863 22.8877 53.7961 24.1305 53.2199 24.6586L53.8957 25.3958ZM53.998 15.416C53.6432 14.757 53.188 14.2896 52.6354 13.9982C52.0869 13.7089 51.4812 13.6136 50.8557 13.6322C49.6325 13.6688 48.2129 14.1511 46.7725 14.6386C43.8014 15.6442 40.5852 16.72 37.5569 15.2058L37.1097 16.1003C40.5712 17.831 44.2053 16.5633 47.0931 15.5859C48.5822 15.0819 49.8441 14.6629 50.8855 14.6318C51.3924 14.6167 51.8148 14.6959 52.169 14.8827C52.5192 15.0674 52.8415 15.3774 53.1176 15.8901L53.998 15.416ZM37.5569 15.2058C34.3951 13.6249 32.7359 11.7908 31.3773 10.4322C30.7063 9.7611 30.0645 9.15898 29.3337 8.8128C28.5683 8.45025 27.7411 8.38219 26.7339 8.68435L27.0212 9.64218C27.8167 9.40352 28.3866 9.47067 28.9056 9.71654C29.4592 9.97877 29.9893 10.4583 30.6702 11.1393C32.0157 12.4848 33.7817 14.4363 37.1097 16.1003L37.5569 15.2058ZM26.7339 8.68435C25.1928 9.14666 24.3347 9.91509 23.9443 10.7666C23.561 11.6026 23.6674 12.4365 23.8942 12.9657L24.8133 12.5717C24.6795 12.2596 24.6057 11.7235 24.8533 11.1834C25.0938 10.6588 25.6779 10.0452 27.0212 9.64218L26.7339 8.68435ZM88.8841 43.7685C89.7021 42.9506 90.7743 41.5242 91.3488 40.0547C91.6364 39.3191 91.814 38.5354 91.7425 37.7932C91.6691 37.0322 91.3334 36.3292 90.6333 35.8041L90.0333 36.6041C90.487 36.9443 90.698 37.38 90.7471 37.8892C90.798 38.4171 90.6737 39.035 90.4175 39.6906C89.9043 41.0032 88.9214 42.317 88.177 43.0614L88.8841 43.7685ZM90.6333 35.8041C89.2037 34.7319 88.1867 33.7878 87.5622 32.747C86.9498 31.7263 86.6944 30.577 86.8643 29.0484L85.8704 28.938C85.6797 30.6543 85.9651 32.0288 86.7047 33.2615C87.4323 34.4741 88.5785 35.513 90.0333 36.6041L90.6333 35.8041ZM86.8643 29.0484C86.9409 28.359 87.3348 27.5639 87.8903 26.6717C88.1638 26.2325 88.4636 25.7889 88.7667 25.3353C89.0673 24.8855 89.3702 24.4271 89.6373 23.9742C90.1596 23.0886 90.6021 22.134 90.5682 21.2174C90.5506 20.7423 90.4057 20.2846 90.0963 19.8671C89.7914 19.4555 89.3439 19.1062 88.7542 18.8113L88.307 19.7057C88.7989 19.9517 89.1063 20.2107 89.2929 20.4625C89.4751 20.7084 89.5583 20.9689 89.5689 21.2544C89.5913 21.8588 89.2902 22.5942 88.7759 23.4663C88.5247 23.8922 88.2361 24.3295 87.9353 24.7797C87.6371 25.226 87.3256 25.6866 87.0414 26.1431C86.4815 27.0424 85.9741 28.0049 85.8704 28.938L86.8643 29.0484ZM88.7542 18.8113C87.5311 18.1997 85.824 18.1747 83.9687 18.4017C82.0918 18.6313 79.9573 19.1344 77.8171 19.6751C75.6647 20.2189 73.5092 20.7998 71.5465 21.2024C69.5745 21.6069 67.8658 21.8156 66.6035 21.6472L66.4713 22.6385C67.9131 22.8307 69.7647 22.5887 71.7474 22.182C73.7395 21.7734 75.933 21.1825 78.0621 20.6446C80.2034 20.1037 82.2827 19.6154 84.0901 19.3943C85.9192 19.1705 87.3669 19.2357 88.307 19.7057L88.7542 18.8113ZM66.6035 21.6472C65.3946 21.4861 64.3381 20.8389 63.3375 19.8924C62.3324 18.9416 61.4229 17.7277 60.4935 16.4809C59.5767 15.2511 58.6373 13.9845 57.6021 13.0078C56.5622 12.0267 55.3768 11.29 53.954 11.1883L53.8827 12.1858C54.9837 12.2644 55.9615 12.8347 56.9159 13.7352C57.875 14.6401 58.7608 15.8297 59.6918 17.0786C60.6102 18.3106 61.571 19.5979 62.6503 20.6189C63.7341 21.6441 64.9761 22.4391 66.4713 22.6385L66.6035 21.6472ZM53.954 11.1883C52.6327 11.094 51.0764 11.2596 49.4578 11.5143C47.8442 11.7681 46.1031 12.1224 44.4577 12.4115C42.7939 12.7037 41.2034 12.9344 39.8135 12.9617C38.4126 12.9893 37.2884 12.8077 36.5089 12.34L35.9944 13.1975C37.0176 13.8114 38.3722 13.9903 39.8332 13.9615C41.305 13.9326 42.9594 13.69 44.6307 13.3964C46.3203 13.0995 48.0044 12.7552 49.6132 12.5021C51.2169 12.2498 52.6802 12.0999 53.8827 12.1858L53.954 11.1883ZM36.5089 12.34C34.7378 11.2773 33.4121 10.4238 32.1283 9.9959C30.7922 9.55051 29.5081 9.5621 27.801 10.1311L28.1173 11.0798C29.6552 10.5672 30.7146 10.5787 31.8121 10.9446C32.962 11.3279 34.1601 12.0969 35.9944 13.1975L36.5089 12.34ZM27.801 10.1311C26.1721 10.6741 25.2439 11.0435 24.5808 11.3751C23.9141 11.7084 23.5183 12.0037 22.9947 12.3527L23.5494 13.1847C24.1075 12.8127 24.4328 12.5671 25.028 12.2695C25.6268 11.9701 26.5013 11.6184 28.1173 11.0798L27.801 10.1311ZM76.969 40.9006C78.337 39.6569 80.2756 37.0871 79.6467 33.9428L78.6661 34.1389C79.191 36.7632 77.5722 39.0007 76.2963 40.1606L76.969 40.9006ZM79.6467 33.9428C79.425 32.8342 78.5546 32.0161 77.5303 31.3701C76.4958 30.7177 75.1925 30.1725 73.9382 29.6574C72.6629 29.1336 71.4397 28.6412 70.4855 28.0828C69.5128 27.5135 68.9599 26.9535 68.8282 26.3609L67.852 26.5779C68.0809 27.6078 68.9702 28.3547 69.9804 28.9459C71.0093 29.548 72.3098 30.0696 73.5583 30.5824C74.8278 31.1038 76.0484 31.6178 76.9969 32.216C77.9555 32.8206 78.5273 33.4447 78.6661 34.1389L79.6467 33.9428ZM68.8282 26.3609C68.4321 24.5785 66.7997 22.4156 64.6875 20.7167C62.5643 19.0089 59.8424 17.6769 57.1632 17.6769V18.6769C59.5317 18.6769 62.0377 19.8686 64.0607 21.4959C66.0949 23.132 67.527 25.1154 67.852 26.5779L68.8282 26.3609ZM57.1632 17.6769C52.2171 17.6769 47.9166 16.0098 42.1785 14.0971L41.8623 15.0458C47.5256 16.9335 52.0141 18.6769 57.1632 18.6769V17.6769ZM42.1785 14.0971C39.5766 13.2298 38.0207 11.8495 36.5741 10.6289C35.1342 9.41402 33.747 8.30272 31.5646 8.30272V9.30272C33.3482 9.30272 34.4848 10.1744 35.9292 11.3932C37.367 12.6063 39.056 14.1103 41.8623 15.0458L42.1785 14.0971ZM31.5646 8.30272C29.4631 8.30272 27.2136 9.15574 25.5531 10.0782C24.7191 10.5415 24.0097 11.0356 23.5235 11.4732C23.2832 11.6894 23.0775 11.9096 22.9416 12.1209C22.8739 12.2263 22.8098 12.3503 22.7765 12.4866C22.7427 12.6251 22.7335 12.8096 22.8249 12.9923L23.7193 12.5451C23.7656 12.6377 23.7508 12.7123 23.7479 12.7241C23.7456 12.7336 23.7492 12.714 23.7828 12.6616C23.8498 12.5575 23.9821 12.4058 24.1925 12.2165C24.6076 11.8428 25.2502 11.3904 26.0387 10.9524C27.6231 10.0722 29.7002 9.30272 31.5646 9.30272V8.30272Z" fill="black"/>
<path d="M35.207 30.0749C35.185 29.7396 35.1746 29.4047 35.1713 29.0936C35.1616 28.1843 35.8257 27.4327 36.7208 27.2725C40.754 26.5503 51.9786 24.6733 59.724 24.6667C67.5947 24.66 79.0071 26.5509 83.0839 27.2742C83.9804 27.4333 84.647 28.1857 84.6372 29.0963C84.6339 29.4066 84.6235 29.7406 84.6016 30.0749C84.5921 30.2192 83.9425 30.347 82.7988 30.4584H37.0097C35.8661 30.347 35.2165 30.2192 35.207 30.0749Z" fill="black"/>
<path d="M12.8163 51.3469C16.8576 52.4438 19.2285 52.4352 23.6327 51.3469C25.3526 51.3469 26.6324 51.7219 27.2381 49.9048V13.8503C27.2381 12.4082 23.0304 12.4239 18.9456 12.4082C14.8807 12.3925 9.21091 12.0476 9.21091 13.8503V49.9048C9.81662 51.7219 11.0964 51.3469 12.8163 51.3469Z" fill="black"/>
<path d="M37.3333 51.4286V41.8912C37.3333 41.3389 37.781 40.8912 38.3333 40.8912H78.8775C79.4298 40.8912 79.8775 41.3389 79.8775 41.8912V51.4286C79.8775 51.9809 79.4298 52.4286 78.8775 52.4286H38.3333C37.781 52.4286 37.3333 51.9809 37.3333 51.4286Z" stroke="black"/>
<path d="M39.4966 49.6258V45.4966C39.4966 44.9443 39.9443 44.4966 40.4966 44.4966H64.4558C65.008 44.4966 65.4558 44.9443 65.4558 45.4966V49.6258C65.4558 50.1781 65.008 50.6258 64.4558 50.6258H40.4966C39.9443 50.6258 39.4966 50.1781 39.4966 49.6258Z" fill="black"/>
<path d="M77.1735 43.415H40.0374C39.7387 43.415 39.4966 43.1728 39.4966 42.8741C39.4966 42.5755 39.7387 42.3333 40.0374 42.3333H77.1735C77.4721 42.3333 77.7143 42.5755 77.7143 42.8741C77.7143 43.1728 77.4721 43.415 77.1735 43.415Z" fill="black"/>
<path d="M66.8979 46.0204V45.4966C66.8979 44.9443 67.3457 44.4966 67.8979 44.4966H70.585C71.1373 44.4966 71.585 44.9443 71.585 45.4966V46.0204C71.585 46.5727 71.1373 47.0204 70.585 47.0204H67.8979C67.3457 47.0204 66.8979 46.5727 66.8979 46.0204Z" fill="black"/>
<path d="M73.0272 49.6258V45.4966C73.0272 44.9443 73.4749 44.4966 74.0272 44.4966H76.7143C77.2666 44.4966 77.7143 44.9443 77.7143 45.4966V49.6258C77.7143 50.1781 77.2666 50.6258 76.7143 50.6258H74.0272C73.4749 50.6258 73.0272 50.1781 73.0272 49.6258Z" fill="black"/>
<path d="M66.8979 49.5442V49.7245C66.8979 50.2223 67.3015 50.6258 67.7993 50.6258H70.6837C71.1815 50.6258 71.585 50.2223 71.585 49.7245V49.5442C71.585 49.146 71.2622 48.8231 70.8639 48.8231H70.6837C70.385 48.8231 70.1428 48.581 70.1428 48.2823C70.1428 47.9836 69.9007 47.7415 69.602 47.7415H68.8809C68.5823 47.7415 68.3401 47.9836 68.3401 48.2823C68.3401 48.581 68.098 48.8231 67.7993 48.8231H67.619C67.2208 48.8231 66.8979 49.146 66.8979 49.5442Z" fill="black"/>
<path d="M82.0408 52.8707V41.1701C82.0408 40.6178 82.4885 40.1701 83.0408 40.1701H99.068C99.6203 40.1701 100.068 40.6178 100.068 41.1701V52.8707C100.068 53.423 99.6203 53.8707 99.068 53.8707H83.0408C82.4885 53.8707 82.0408 53.423 82.0408 52.8707Z" stroke="black"/>
<path d="M86.3673 45.5782V45.2177C86.3673 44.0229 87.3359 43.0544 88.5306 43.0544C89.7253 43.0544 90.6939 44.0229 90.6939 45.2177V45.5782V48.102C90.6939 49.2968 89.7253 50.2653 88.5306 50.2653C87.3359 50.2653 86.3673 49.2968 86.3673 48.102V45.5782Z" fill="black"/>
<path d="M87.0884 46.9388V45.9773C87.0884 45.3136 87.6265 44.7755 88.2903 44.7755H88.8912C89.4885 44.7755 89.9728 45.2598 89.9728 45.8571V46.9388H88.8912V44.7755H88.2903V46.9388H87.0884Z" fill="white"/>
</svg>
